# xmcd CD database file
#
# Track frame offsets:
#	150
#	11134
#	21699
#	32218
#	46517
#	56524
#	74330
#	84787
#	101207
#	130749
#
# Disc length: 2109 seconds
#
# Revision: 0
# Processed by: cddbd v1.5.1PL0 Copyright (c) Steve Scherf et al.
# Submitted via: CDex 1.51
#
DISCID=80083b0a
DTITLE=Origin - Echoes Of Decimation
DYEAR=1900
DGENRE=メタル (一般)
TTITLE0=Reciprocal
TTITLE1=Endless Cure
TTITLE2=The Burner
TTITLE3=Designed To Expire
TTITLE4=Cloning The Stillborn
TTITLE5=Staring From The Abyss
TTITLE6=Amoeba
TTITLE7=Debased Humanity
TTITLE8=Echoes Of Decimation
TTITLE9=データ
EXTD=
EXTT0=
EXTT1=
EXTT2=
EXTT3=
EXTT4=
EXTT5=
EXTT6=
EXTT7=
EXTT8=
EXTT9=
PLAYORDER=
